<svg width="30" height="30" fill="none" xmlns="http://www.w3.org/2000/svg"><path d="M7.396 8.624c-.084-1.198.182-2.378.885-3.327.61-.86 1.404-1.33 2.362-1.605.806-.24 1.334.054 1.567.95.332 1.34.806 2.68.978 4.092.055.62-.347 1.5-.782 1.952-1.09 1.073-.863 1.854-.036 3.478.257.524.664 1.43 1.459 2.628.827 1.207 1.265 1.855 2.328 1.305 1.18-.594 2.041-.212 2.932.747.604.693 1.268 1.288 1.872 1.98.873 1.03.834 1.74.151 2.467-1.229 1.34-3.258 1.783-4.768.886-.833-.489-1.664-1.128-2.325-1.874-2.914-3.32-5.016-7.182-6.281-11.54a10.989 10.989 0 01-.342-2.139z" stroke="#FE8978" stroke-width="2" stroke-miterlimit="10"/></svg>