<svg width="58" height="22" fill="none" xmlns="http://www.w3.org/2000/svg"><path d="M27.734 0l-5.676 17.073h-4.312l-3.817-11.56-3.94 11.56H5.7L0 0h4.164L8.08 12l4.09-12h3.717l3.965 12.098L23.892 0h3.842zm6.355 3.756c2.065 0 3.651.488 4.758 1.464 1.107.959 1.66 2.414 1.66 4.365v7.488H36.89V15.44c-.727 1.22-2.082 1.83-4.064 1.83-1.025 0-1.917-.171-2.677-.513-.744-.341-1.314-.813-1.71-1.415-.397-.601-.595-1.284-.595-2.048 0-1.22.463-2.18 1.388-2.878.942-.7 2.387-1.05 4.337-1.05h3.073c0-.828-.256-1.463-.768-1.902-.512-.455-1.28-.683-2.305-.683a6.72 6.72 0 00-2.106.342c-.678.211-1.256.504-1.735.878L28.34 5.342c.727-.504 1.594-.894 2.602-1.17a12.029 12.029 0 013.148-.415zm-.298 10.951c.661 0 1.248-.146 1.76-.439a2.535 2.535 0 001.09-1.341v-1.342H33.99c-1.587 0-2.38.513-2.38 1.537 0 .488.19.878.57 1.17.397.277.934.415 1.611.415zM57 3.951l-6.023 13.927c-.611 1.512-1.371 2.577-2.28 3.195-.892.618-1.974.927-3.247.927-.694 0-1.38-.106-2.057-.317-.677-.212-1.23-.504-1.66-.878l1.412-2.707a3.37 3.37 0 002.181.829c.53 0 .959-.13 1.29-.39.33-.244.627-.659.892-1.244l.05-.122-5.776-13.22h3.99l3.743 8.903 3.767-8.903H57z" fill="#141517"/><path d="M57.017 3.95l-6.022 13.927c-.612 1.512-1.372 2.577-2.28 3.195-.893.618-1.975.927-3.247.927-.694 0-1.38-.106-2.057-.317-.678-.211-1.231-.504-1.661-.878l1.413-2.707a3.368 3.368 0 002.18.829c.53 0 .96-.13 1.29-.39.33-.244.627-.659.892-1.244l.05-.122 1.957-4.317L53.3 3.95h3.717z" fill="#FE7865"/></svg>